<svg width="61" height="9" viewBox="0 0 61 9" fill="none" xmlns="http://www.w3.org/2000/svg">
<path d="M56.7882 8.93168C54.7584 8.93168 53.3646 7.51663 53.3646 5.67318C53.3646 3.8427 54.7584 2.41467 56.7882 2.41467C58.818 2.41467 60.2118 3.8427 60.2118 5.67318C60.2118 7.51663 58.818 8.93168 56.7882 8.93168ZM54.7313 5.67318C54.7313 6.75069 55.5297 7.67242 56.7882 7.67242C58.0467 7.67242 58.8315 6.75069 58.8315 5.67318C58.8315 4.59566 58.0467 3.66095 56.7882 3.66095C55.5297 3.66095 54.7313 4.59566 54.7313 5.67318Z" fill="#4A2473"/>
<path d="M51.1627 0H52.5159V5.66019C52.5159 7.6854 51.1086 8.93168 49.2006 8.93168C47.3196 8.93168 45.8716 7.64645 45.8716 5.77703C45.8716 3.97252 47.2519 2.55747 49.39 2.55747H49.9178L50.3237 3.79077H49.4847C48.0097 3.79077 47.2384 4.7125 47.2384 5.79001C47.2384 6.91946 48.1044 7.6854 49.187 7.6854C50.3102 7.6854 51.1627 6.9584 51.1627 5.62125V0Z" fill="#4A2473"/>
<path d="M39.23 5.2967C39.23 3.53113 40.3937 2.41467 42.1123 2.41467C43.8309 2.41467 44.9947 3.53113 44.9947 5.2967V8.78888H43.6415V5.2967C43.6415 4.28409 43.0325 3.66095 42.1123 3.66095C41.1786 3.66095 40.5832 4.28409 40.5832 5.2967V8.78888H39.23V5.2967Z" fill="#4A2473"/>
<path d="M35.0253 8.78888C32.8872 8.78888 31.507 7.37383 31.507 5.56932C31.507 3.6999 32.9549 2.41467 34.8359 2.41467C36.7439 2.41467 38.1512 3.66095 38.1512 5.68616V8.78888H36.798V5.72511C36.798 4.38795 35.9455 3.66095 34.8223 3.66095C33.7398 3.66095 32.8737 4.4269 32.8737 5.55634C32.8737 6.63385 33.645 7.55558 35.12 7.55558H35.959L35.5531 8.78888H35.0253Z" fill="#4A2473"/>
<path d="M28.1432 4.77743C28.1432 3.4273 28.9416 2.5575 30.376 2.5575H31.3097V3.79079H30.5248C29.9159 3.79079 29.4964 4.11535 29.4964 4.86831V8.7889H28.1432V4.77743Z" fill="#4A2473"/>
<path d="M26.2573 1.73961C25.7702 1.73961 25.4183 1.41506 25.4183 0.960688C25.4183 0.506315 25.7837 0.181763 26.2573 0.181763C26.731 0.181763 27.0963 0.506315 27.0963 0.960688C27.0963 1.41506 26.731 1.73961 26.2573 1.73961ZM25.5807 8.78889V2.55749H26.9339V8.78889H25.5807Z" fill="#4A2473"/>
<path d="M21.8532 8.78886C19.6475 8.78886 18.1995 7.36083 18.1995 5.58228C18.1995 3.8297 19.5392 2.41465 21.4743 2.41465C23.3417 2.40167 24.5867 3.68689 24.5867 5.14089C24.5867 5.73806 24.3702 6.30928 24.0454 6.75067H22.5839C22.9628 6.25735 23.1794 5.80297 23.1794 5.29667C23.1794 4.38793 22.4757 3.66093 21.4743 3.66093C20.3376 3.66093 19.5798 4.51775 19.5798 5.55631C19.5798 6.60786 20.3782 7.55556 22.0021 7.55556H24.492L24.0995 8.78886H21.8532Z" fill="#4A2473"/>
<path d="M16.8073 8.78891C15.2511 8.78891 14.4392 7.90613 14.4392 6.50406V1.14246H15.7924V2.5575H17.7681V3.7908H15.7924V6.34827C15.7924 7.19211 16.2255 7.55561 17.0103 7.55561H17.9711L17.5787 8.78891H16.8073Z" fill="#4A2473"/>
<path d="M10.126 8.93168C8.0962 8.93168 6.70239 7.51663 6.70239 5.67318C6.70239 3.8427 8.0962 2.41467 10.126 2.41467C12.1558 2.41467 13.5497 3.8427 13.5497 5.67318C13.5497 7.51663 12.1558 8.93168 10.126 8.93168ZM8.06914 5.67318C8.06914 6.75069 8.86754 7.67242 10.126 7.67242C11.3845 7.67242 12.1694 6.75069 12.1694 5.67318C12.1694 4.59566 11.3845 3.66095 10.126 3.66095C8.86754 3.66095 8.06914 4.59566 8.06914 5.67318Z" fill="#4A2473"/>
<path d="M0 8.78888V0H3.23418C5.11515 0 6.23832 1.16839 6.23832 2.7522C6.23832 3.89463 5.45346 4.94618 4.23556 5.19284L6.53603 8.78888H4.9663L2.07042 4.21918H3.11239C4.26263 4.21918 4.83098 3.53113 4.83098 2.7522C4.83098 1.90837 4.19497 1.25926 3.23418 1.25926H1.40734V8.78888H0Z" fill="#4A2473"/>
</svg>