<svg width="245" height="37" viewBox="0 0 245 37" fill="none" xmlns="http://www.w3.org/2000/svg">
<g clip-path="url(#clip0_5_54)">
<path d="M226.836 8.57642C220.278 8.57642 214.899 14.0021 214.899 20.56C214.899 27.118 220.278 32.4493 226.836 32.4493V37.0257C217.73 37.0257 210.323 29.6657 210.323 20.56C210.323 11.4544 217.73 4 226.836 4V8.57642ZM228.393 35.2329C236.602 35.2329 243.207 28.7221 243.207 20.5128C243.207 12.3036 236.602 5.79282 228.393 5.79282V4C237.64 4 245 11.2657 245 20.5128C245 29.76 237.64 37.0257 228.393 37.0257V35.2329ZM226.836 10.2277C221.127 10.558 216.551 14.7098 216.551 20.4657C216.551 26.2687 221.033 30.4677 226.836 30.798V29.0052C221.976 28.8164 218.344 25.3252 218.344 20.4657C218.344 15.7005 222.071 12.3508 226.836 12.0205V10.2277Z" fill="#4A2473"/>
<path d="M226.836 8.57642C220.278 8.57642 214.899 14.0021 214.899 20.56C214.899 27.118 220.278 32.4493 226.836 32.4493V37.0257C217.73 37.0257 210.323 29.6657 210.323 20.56C210.323 11.4544 217.73 4 226.836 4V8.57642ZM228.393 35.2329C236.602 35.2329 243.207 28.7221 243.207 20.5128C243.207 12.3036 236.602 5.79282 228.393 5.79282V4C237.64 4 245 11.2657 245 20.5128C245 29.76 237.64 37.0257 228.393 37.0257V35.2329ZM226.836 10.2277C221.127 10.558 216.551 14.7098 216.551 20.4657C216.551 26.2687 221.033 30.4677 226.836 30.798V29.0052C221.976 28.8164 218.344 25.3252 218.344 20.4657C218.344 15.7005 222.071 12.3508 226.836 12.0205V10.2277Z" fill="#4A2473"/>
<path d="M187.813 4V37.0257H183.189V4H187.813ZM191.729 4V37.0257H189.936V4H191.729ZM193.38 35.0913C199.891 33.5816 204.656 27.5426 204.656 20.5128C204.656 13.4831 199.891 7.44411 193.333 5.93436V4C200.929 5.55692 206.543 12.4451 206.543 20.5128C206.543 28.5805 200.929 35.4688 193.38 37.0257V35.0913Z" fill="#4A2473"/>
<path d="M158.121 37.0257H156.328V4H158.121V37.0257ZM168.878 37.0257L158.782 4H163.405L173.124 34.9026V37.0257H168.878ZM174.775 29.1939V4H176.568V37.0257H174.775V34.9026L165.056 4H166.849L174.775 29.1939Z" fill="#4A2473"/>
<path d="M132.438 34.9026L138.43 4H139.986L133.947 37.0257H132.438V34.9026ZM140.647 4H145.506L150.743 34.9026V37.0257H146.261L141.826 10.8882L139.232 26.5518H142.817V28.3918H138.901L137.486 37.0257H135.599L137.439 26.5518L141.024 6.21744L140.647 4Z" fill="#4A2473"/>
<path d="M116.398 37.0257H111.775V4H116.398V37.0257ZM119.843 37.0257H118.05V4H119.843V37.0257ZM128.476 11.7374C128.476 17.399 124.844 18.9559 121.494 19.3334V17.4933C124.372 17.0216 126.684 15.6533 126.684 11.7374C126.684 7.77436 124.419 6.3118 121.494 5.84V4C124.844 4.37744 128.476 6.02872 128.476 11.7374ZM121.494 20.9846H123.475L130.552 36.7898V37.0257H128.665L121.494 20.9846Z" fill="#4A2473"/>
<path d="M101.839 4V37.0257H97.2156V4H101.839ZM103.396 37.0257H105.189V4H103.396V37.0257Z" fill="#4A2473"/>
<path d="M81.2442 37.0257H76.6206V4H81.2442V37.0257ZM92.0483 4V5.79282H84.6883V19.6164H88.2739V21.3149H84.6883V35.2329H92.0483V37.0257H82.8955V4H92.0483Z" fill="#4A2473"/>
<path d="M55.4525 5.69846V4H73.7582V5.69846H55.4525ZM60.5479 37.0257V7.34975H65.1715V37.0257H60.5479ZM68.6156 7.34975H66.8228V37.0257H68.6156V7.34975Z" fill="#4A2473"/>
<path d="M37.058 8.57642C30.5 8.57642 25.1216 14.0021 25.1216 20.56C25.1216 27.118 30.5 32.4493 37.058 32.4493V37.0257C27.9524 37.0257 20.5452 29.6657 20.5452 20.56C20.5452 11.4544 27.9524 4 37.058 4V8.57642ZM38.6149 35.2329C46.8242 35.2329 53.4293 28.7221 53.4293 20.5128C53.4293 12.3036 46.8242 5.79282 38.6149 5.79282V4C47.8621 4 55.2221 11.2657 55.2221 20.5128C55.2221 29.76 47.8621 37.0257 38.6149 37.0257V35.2329ZM37.058 10.2277C31.3493 10.558 26.7729 14.7098 26.7729 20.4657C26.7729 26.2687 31.2549 30.4677 37.058 30.798V29.0052C32.1985 28.8164 28.5657 25.3252 28.5657 20.4657C28.5657 15.7005 32.2929 12.3508 37.058 12.0205V10.2277Z" fill="#4A2473"/>
<path d="M4.6236 37.0257H0V4H4.6236V37.0257ZM8.0677 37.0257H6.27488V4H8.0677V37.0257ZM16.7016 11.7374C16.7016 17.399 13.0687 18.9559 9.71899 19.3334V17.4933C12.5969 17.0216 14.9087 15.6533 14.9087 11.7374C14.9087 7.77436 12.6441 6.3118 9.71899 5.84V4C13.0687 4.37744 16.7016 6.02872 16.7016 11.7374ZM9.71899 20.9846H11.7005L18.7775 36.7898V37.0257H16.8903L9.71899 20.9846Z" fill="#4A2473"/>
</g>
<defs>
<clipPath id="clip0_5_54">
<rect width="245" height="37" fill="white"/>
</clipPath>
</defs>
</svg>
