<svg width="45" height="43" viewBox="0 0 45 43" fill="none" xmlns="http://www.w3.org/2000/svg">
<rect width="45" height="43" rx="8" fill="#F1E4FF"/>
<path d="M21.334 8C29.0797 8.00006 34.6123 13.2561 34.6123 22.1084V33.8936C34.6121 34.6125 34.2249 35 33.5059 35H32.0117C31.8732 35 31.7473 34.9844 31.6338 34.9561L22.1641 35C14.2523 35 8.00007 29.467 8 21.334C8 13.4775 13.8648 8 21.334 8ZM21.334 11.5967C16.1886 11.5967 11.8175 15.3031 11.8174 21.2783C11.8174 26.5897 15.3031 31.4589 22.5508 31.459H25.373C25.9132 31.459 29.107 31.4181 30.9053 31.6357V22.2188C30.9051 15.3584 26.8665 11.5967 21.334 11.5967ZM17.4697 15.6426C17.7736 15.4403 18.1719 15.4511 18.4648 15.6689L28.8701 23.4111C29.1635 23.6296 29.2873 24.0088 29.1797 24.3584C29.0719 24.708 28.7562 24.9533 28.3906 24.9688L23.8203 25.1611L21.8574 29.2461C21.6998 29.5742 21.3534 29.769 20.9912 29.7324C20.6289 29.6956 20.3277 29.4353 20.2393 29.082L17.1104 16.5723C17.0218 16.218 17.1659 15.8452 17.4697 15.6426ZM21.335 26.3398L22.4863 23.9443C22.6246 23.6566 22.9115 23.4675 23.2305 23.4541L25.8818 23.3438L19.375 18.502L21.335 26.3398Z" fill="#4A2473"/>
</svg>
