<svg width="125" height="19" viewBox="0 0 125 19" fill="none" xmlns="http://www.w3.org/2000/svg">
<path d="M117.893 18.5422C113.679 18.5422 110.785 15.6046 110.785 11.7775C110.785 7.97747 113.679 5.01288 117.893 5.01288C122.106 5.01288 125 7.97747 125 11.7775C125 15.6046 122.106 18.5422 117.893 18.5422ZM113.622 11.7775C113.622 14.0145 115.28 15.928 117.893 15.928C120.505 15.928 122.135 14.0145 122.135 11.7775C122.135 9.54063 120.505 7.60016 117.893 7.60016C115.28 7.60016 113.622 9.54063 113.622 11.7775Z" fill="#4A2473"/>
<path d="M106.214 0H109.023V11.7506C109.023 15.9549 106.102 18.5422 102.141 18.5422C98.2357 18.5422 95.2297 15.8741 95.2297 11.9931C95.2297 8.24697 98.0952 5.30932 102.534 5.30932H103.629L104.472 7.86966H102.731C99.6684 7.86966 98.0671 9.78317 98.0671 12.0201C98.0671 14.3648 99.8651 15.9549 102.112 15.9549C104.444 15.9549 106.214 14.4457 106.214 11.6697V0Z" fill="#4A2473"/>
<path d="M81.4415 10.996C81.4415 7.33065 83.8575 5.01288 87.4253 5.01288C90.9931 5.01288 93.4091 7.33065 93.4091 10.996V18.2458H90.5998V10.996C90.5998 8.8938 89.3356 7.60016 87.4253 7.60016C85.4869 7.60016 84.2508 8.8938 84.2508 10.996V18.2458H81.4415V10.996Z" fill="#4A2473"/>
<path d="M72.7127 18.2458C68.274 18.2458 65.4086 15.3081 65.4086 11.5619C65.4086 7.68101 68.4145 5.01288 72.3194 5.01288C76.2805 5.01288 79.2021 7.60016 79.2021 11.8045V18.2458H76.3929V11.8854C76.3929 9.10941 74.623 7.60016 72.2913 7.60016C70.0439 7.60016 68.2459 9.19026 68.2459 11.535C68.2459 13.7719 69.8472 15.6854 72.9093 15.6854H74.6511L73.8083 18.2458H72.7127Z" fill="#4A2473"/>
<path d="M58.4254 9.91793C58.4254 7.11503 60.0828 5.30933 63.0607 5.30933H64.9991V7.86966H63.3697C62.1055 7.86966 61.2346 8.54343 61.2346 10.1066V18.2457H58.4254V9.91793Z" fill="#4A2473"/>
<path d="M54.5103 3.61142C53.499 3.61142 52.7686 2.93765 52.7686 1.99437C52.7686 1.05109 53.5271 0.377319 54.5103 0.377319C55.4936 0.377319 56.2521 1.05109 56.2521 1.99437C56.2521 2.93765 55.4936 3.61142 54.5103 3.61142ZM53.1057 18.2458V5.30933H55.915V18.2458H53.1057Z" fill="#4A2473"/>
<path d="M45.3673 18.2457C40.7882 18.2457 37.7822 15.2811 37.7822 11.5889C37.7822 7.95048 40.5634 5.01284 44.5807 5.01284C48.4575 4.98589 51.042 7.65402 51.042 10.6725C51.042 11.9123 50.5925 13.0981 49.9183 14.0144H46.8843C47.6709 12.9903 48.1204 12.047 48.1204 10.9959C48.1204 9.10937 46.6595 7.60012 44.5807 7.60012C42.2209 7.60012 40.6477 9.37888 40.6477 11.5349C40.6477 13.718 42.3052 15.6854 45.6763 15.6854H50.8454L50.0307 18.2457H45.3673Z" fill="#4A2473"/>
<path d="M34.8921 18.2458C31.6615 18.2458 29.9759 16.4131 29.9759 13.5024V2.3717H32.7852V5.30935H36.8867V7.86968H32.7852V13.179C32.7852 14.9308 33.6841 15.6854 35.3135 15.6854H37.3081L36.4934 18.2458H34.8921Z" fill="#4A2473"/>
<path d="M21.0217 18.5422C16.8078 18.5422 13.9142 15.6046 13.9142 11.7775C13.9142 7.97747 16.8078 5.01288 21.0217 5.01288C25.2356 5.01288 28.1292 7.97747 28.1292 11.7775C28.1292 15.6046 25.2356 18.5422 21.0217 18.5422ZM16.7516 11.7775C16.7516 14.0145 18.4091 15.928 21.0217 15.928C23.6344 15.928 25.2637 14.0145 25.2637 11.7775C25.2637 9.54063 23.6344 7.60016 21.0217 7.60016C18.4091 7.60016 16.7516 9.54063 16.7516 11.7775Z" fill="#4A2473"/>
<path d="M0 18.2457V0H6.71418C10.6191 0 12.9508 2.42558 12.9508 5.71359C12.9508 8.08526 11.3214 10.2683 8.79304 10.7804L13.5688 18.2457H10.3101L4.2982 8.75904H6.46134C8.84923 8.75904 10.0291 7.33064 10.0291 5.71359C10.0291 3.96178 8.70877 2.61423 6.71418 2.61423H2.92165V18.2457H0Z" fill="#4A2473"/>
</svg>
