<svg width="32" height="32" viewBox="0 0 32 32" fill="none" xmlns="http://www.w3.org/2000/svg">
  <rect width="32" height="32" rx="6" fill="#4A2473"/>
  <path d="M22.5 8C18.36 8 15 11.36 15 15.5C15 19.64 18.36 23 22.5 23C26.64 23 30 19.64 30 15.5C30 11.36 26.64 8 22.5 8ZM22.5 21C19.46 21 17 18.54 17 15.5C17 12.46 19.46 10 22.5 10C25.54 10 28 12.46 28 15.5C28 18.54 25.54 21 22.5 21Z" fill="white" opacity="0.95"/>
  <path d="M16 9C12.13 9 9 12.13 9 16C9 19.87 12.13 23 16 23C19.87 23 23 19.87 23 16C23 12.13 19.87 9 16 9ZM16 21C13.24 21 11 18.76 11 16C11 13.24 13.24 11 16 11C18.76 11 21 13.24 21 16C21 18.76 18.76 21 16 21Z" fill="white" opacity="0.85"/>
  <path d="M16 10.5C13.51 10.82 11.7 13.02 11.7 15.5C11.7 17.98 13.51 20.18 16 20.5V19.01C14.14 18.73 12.76 17.28 12.76 15.5C12.76 13.72 14.14 12.27 16 11.99V10.5Z" fill="white"/>
</svg>
